<?xml version="1.0" standalone="no"?>
<!DOCTYPE svg PUBLIC "-//W3C//DTD SVG 20010904//EN"
 "http://www.w3.org/TR/2001/REC-SVG-20010904/DTD/svg10.dtd">
<svg version="1.0" xmlns="http://www.w3.org/2000/svg"
 width="1181.000000pt" height="354.000000pt" viewBox="0 0 1181.000000 354.000000"
 preserveAspectRatio="xMidYMid meet">

<g transform="translate(0.000000,354.000000) scale(0.100000,-0.100000)"
fill="#000000" stroke="none">
<path d="M2280 2946 c0 -2 8 -10 18 -17 15 -13 16 -12 3 4 -13 16 -21 21 -21
13z"/>
<path d="M2350 2885 c13 -14 26 -25 28 -25 3 0 -5 11 -18 25 -13 14 -26 25
-28 25 -3 0 5 -11 18 -25z"/>
<path d="M2429 2828 c7 -10 10 -18 6 -18 -4 0 8 -17 27 -38 192 -212 290 -539
259 -863 -6 -67 -18 -142 -25 -168 -8 -25 -26 -86 -41 -136 -77 -259 -263
-547 -495 -768 -199 -189 -518 -407 -596 -407 -64 0 -338 181 -523 344 -40 36
-78 63 -84 59 -5 -3 -7 -1 -4 4 8 13 -17 36 -28 25 -5 -4 -5 -2 -2 4 6 11 -41
64 -48 54 -2 -3 -7 -1 -12 4 -5 5 -3 6 5 2 22 -13 13 10 -16 37 -16 15 -31 25
-35 22 -4 -3 -5 -2 -2 1 6 9 -35 65 -44 60 -4 -3 -8 1 -8 8 0 7 -19 38 -43 69
-23 32 -41 60 -38 63 3 2 33 -33 66 -78 110 -151 358 -398 384 -382 6 4 8 3 4
-4 -14 -23 352 -268 417 -279 30 -4 48 1 101 33 36 20 62 42 59 47 -3 6 -1 7
6 3 14 -9 144 76 277 182 122 98 320 301 397 410 85 119 152 234 197 342 37
90 90 257 90 285 0 12 -65 40 -280 120 l-75 28 3 110 c2 79 -2 131 -14 181
-33 139 -120 293 -216 381 l-43 40 41 -45 c146 -160 211 -307 221 -500 19
-381 -230 -766 -667 -1029 l-82 -49 -57 33 c-247 139 -452 339 -587 571 -10
17 -19 11 -100 -57 -49 -42 -117 -106 -152 -143 -69 -74 -68 -67 -14 -149 14
-20 22 -40 19 -43 -3 -3 -20 19 -37 50 -18 31 -37 59 -43 63 -11 7 17 -43 66
-116 17 -25 30 -50 30 -57 0 -7 4 -11 8 -9 7 5 23 -25 20 -38 -1 -5 3 -6 9 -2
5 3 11 1 11 -4 1 -6 2 -16 3 -22 0 -6 9 -16 18 -23 10 -7 16 -15 13 -17 -6 -7
153 -178 247 -265 132 -122 345 -277 474 -344 99 -52 139 -41 359 105 448 296
762 704 870 1130 77 303 56 606 -60 860 -43 95 -140 237 -201 295 -27 25 -42
37 -35 28z m36 -38 c10 -11 16 -20 13 -20 -3 0 -13 9 -23 20 -10 11 -16 20
-13 20 3 0 13 -9 23 -20z m-1664 -1787 c13 -16 12 -17 -3 -4 -10 7 -18 15 -18
17 0 8 8 3 21 -13z"/>
<path d="M2025 2620 c10 -11 20 -20 23 -20 3 0 -3 9 -13 20 -10 11 -20 20 -23
20 -3 0 3 -9 13 -20z"/>
<path d="M1445 2323 c-240 -87 -328 -370 -176 -570 76 -99 188 -149 320 -141
140 8 252 82 314 207 29 59 32 74 32 156 0 82 -3 97 -32 156 -39 79 -102 141
-181 177 -76 34 -203 41 -277 15z"/>
<path d="M5700 2230 c0 -11 4 -20 9 -20 5 0 7 9 4 20 -3 11 -7 20 -9 20 -2 0
-4 -9 -4 -20z"/>
<path d="M3930 1978 l0 -85 -72 -6 c-99 -8 -159 -31 -217 -83 -92 -83 -110
-165 -111 -511 l0 -223 -155 0 -155 0 0 457 c0 251 -2 454 -5 451 -3 -2 -5
-230 -5 -505 0 -374 3 -508 12 -528 17 -37 61 -57 138 -62 79 -6 135 12 164
50 20 26 21 45 27 270 5 222 7 247 28 301 45 115 145 185 276 193 58 3 76 1
102 -16 61 -38 66 -56 74 -255 9 -207 25 -295 73 -381 83 -151 286 -213 505
-155 91 24 107 24 243 4 130 -20 187 -14 231 26 l32 28 5 349 c5 375 9 400 61
437 45 31 134 12 160 -35 24 -45 28 -86 30 -284 2 -275 21 -355 105 -445 70
-75 125 -95 264 -95 214 0 305 65 271 192 l-11 41 -60 -24 c-127 -51 -279 -51
-386 1 -61 30 -98 69 -130 140 -35 76 -44 164 -44 463 l0 272 -80 0 -80 0 0
44 0 44 -55 -1 -55 -1 0 -488 0 -488 -150 0 -150 0 0 66 0 67 -46 -43 c-95
-87 -235 -128 -379 -110 -133 17 -226 73 -278 168 -51 93 -57 147 -57 505 l0
327 -22 0 c-13 0 -40 3 -60 6 l-38 7 0 -85z"/>
<path d="M4788 1951 c-5 -18 -7 -120 -7 -225 1 -153 3 -179 10 -131 11 73 8
406 -3 356z"/>
<path d="M10184 1924 l-49 -57 -60 34 c-57 32 -65 34 -155 34 -83 0 -101 -3
-145 -27 -99 -52 -146 -130 -153 -253 -2 -44 0 -91 6 -104 8 -23 10 -22 34 30
63 137 197 196 354 155 115 -30 149 -20 227 63 39 42 47 56 47 89 0 37 -30 92
-49 92 -4 0 -30 -25 -57 -56z"/>
<path d="M4364 1735 c0 -132 2 -185 3 -117 2 68 2 176 0 240 -1 64 -3 9 -3
-123z"/>
<path d="M5858 1962 l-158 -3 2 -287 c1 -232 3 -262 8 -157 10 193 37 233 173
255 118 19 148 42 146 115 -2 84 6 80 -171 77z"/>
<path d="M6610 1955 c-60 -19 -125 -75 -155 -136 -41 -79 -39 -81 68 -76 50 2
111 10 135 18 38 12 49 11 91 -4 60 -21 211 -24 211 -4 0 7 -12 36 -26 65 -60
121 -193 177 -324 137z"/>
<path d="M7909 1926 c-134 -47 -208 -167 -196 -314 6 -81 19 -96 37 -41 21 63
91 134 156 158 70 27 119 26 190 0 79 -30 131 -84 165 -174 10 -27 12 -28 19
-10 15 36 11 159 -7 211 -22 66 -101 145 -167 167 -58 20 -146 21 -197 3z"/>
<path d="M10907 1926 c-128 -46 -208 -177 -194 -316 10 -93 17 -100 40 -39 27
72 97 141 166 164 138 45 287 -30 341 -173 l18 -47 8 40 c44 208 -88 386 -285
385 -31 -1 -73 -7 -94 -14z"/>
<path d="M431 1714 c0 -11 3 -14 6 -6 3 7 2 16 -1 19 -3 4 -6 -2 -5 -13z"/>
<path d="M7260 1626 c0 -18 -3 -48 -6 -65 l-6 -31 -409 0 c-225 0 -409 -2
-409 -5 0 -16 32 -79 56 -110 34 -45 139 -98 174 -88 14 4 79 7 145 8 114 0
123 1 181 31 l60 31 28 -48 27 -49 50 26 c62 31 137 41 178 24 36 -15 66 -52
114 -145 114 -217 310 -335 558 -336 179 -1 326 58 445 176 119 119 177 266
172 432 l-3 88 -13 -56 c-46 -201 -204 -370 -406 -435 -66 -22 -101 -27 -186
-27 -181 0 -321 54 -441 173 -105 104 -164 227 -176 366 -5 67 -8 73 -22 61
-28 -24 -48 -26 -80 -6 l-31 19 0 -34z"/>
<path d="M10385 1527 c-16 -103 30 -320 82 -390 47 -63 174 -166 248 -202 100
-49 174 -66 290 -66 181 0 320 56 440 175 133 133 184 274 175 491 -1 37 -3
35 -19 -30 -51 -205 -202 -366 -404 -431 -65 -21 -103 -26 -182 -27 -121 -1
-184 13 -294 65 -156 74 -281 232 -315 398 l-13 65 -8 -48z"/>
<path d="M9290 1472 c0 -375 321 -647 710 -600 111 13 229 59 281 107 32 31
39 45 39 75 0 21 -7 50 -16 66 l-17 28 -71 -34 c-103 -48 -185 -67 -301 -67
-185 -1 -312 51 -441 178 -87 86 -146 186 -160 273 -11 71 -24 58 -24 -26z"/>
<path d="M6103 1433 c10 -187 50 -277 177 -397 120 -113 271 -168 460 -169
117 0 236 26 320 68 57 29 80 58 80 99 0 35 -21 96 -32 96 -5 0 -36 -11 -68
-25 -98 -41 -185 -58 -305 -58 -129 0 -205 17 -315 71 -141 69 -262 219 -292
363 -19 95 -32 71 -25 -48z"/>
<path d="M9089 1099 c-71 -72 -181 -73 -258 -3 -21 18 -41 34 -44 34 -13 0
-18 -91 -7 -125 67 -204 360 -159 360 55 0 76 -8 83 -51 39z"/>
</g>
</svg>
